<?xml version="1.0" encoding="iso-8859-1"?>
<!-- Generator: Adobe Illustrator 19.0.0, SVG Export Plug-In . SVG Version: 6.00 Build 0)  -->
<svg version="1.1" id="Layer_1" xmlns="http://www.w3.org/2000/svg" xmlns:xlink="http://www.w3.org/1999/xlink" x="0px" y="0px"
	 viewBox="0 0 512 512" style="enable-background:new 0 0 512 512;" xml:space="preserve">
<path style="fill:#8C6D4B;" d="M187.926,492.178c-25.272,0-49.741-5.14-72.727-15.279c-22.192-9.788-41.928-23.731-58.659-41.446
	C24.687,401.734,7.146,357.674,7.146,311.389c0-99.682,81.097-180.78,180.78-180.78c17.442,0,34.695,2.493,51.281,7.411
	c36.603,10.842,69.558,33.669,92.789,64.278c24.016,31.642,36.711,69.365,36.711,109.091
	C368.705,411.077,287.608,492.178,187.926,492.178z M146.647,255.999c-4.889,5.766-15.762,17.918-20.459,26.985
	c-12.365,23.866-6.749,48.454,8.197,66.092c14.908,17.591,31.363,30.379,48.937,30.379c16.831,0,44.941-11.78,53.891-18.133
	c-26.854-14.184-54.718-39.647-70.181-68.612C160.53,280.53,149.28,264.385,146.647,255.999z"/>
<path style="fill:#C6A98D;" d="M203.299,183.54c0,40.445-13.975,77.686-37.352,107.137c-12.383-23.591-15.792-43.151-15.792-43.151
	s-47.316,42.487-33.82,85.852c-25.255,14.496-54.513,22.785-85.658,22.785c-3.205,0-6.39-0.092-9.545-0.255
	c-3.798-14.21-5.819-29.124-5.819-44.519c0-95.172,77.43-172.613,172.613-172.613c3.205,0,6.39,0.092,9.545,0.255
	C201.268,153.231,203.299,168.155,203.299,183.54z"/>
<path style="fill:#A58763;" d="M236.885,145.85c-12.597-3.736-25.797-6.064-39.414-6.819c-3.154-0.163-6.339-0.255-9.545-0.255
	c-95.183,0-172.613,77.441-172.613,172.613c0,15.394,2.021,30.309,5.819,44.519c7.503,28.093,21.938,53.39,41.344,73.939
	c15.527,4.604,31.962,7.074,48.959,7.074c95.183,0,172.623-77.441,172.623-172.623C284.058,218.493,266.111,176.792,236.885,145.85z
	 M128.156,354.356c-5.849-6.901-9.637-13.955-11.821-20.978c-13.495-43.365,33.82-85.852,33.82-85.852s3.41,19.559,15.792,43.151
	c12.75,24.296,35.025,52.869,72.918,68.651C238.865,359.326,181.637,417.464,128.156,354.356z"/>
<path style="fill:#C6A98D;" d="M359.347,365.55c5.532-17.486,8.337-35.708,8.337-54.162c0-14.404-1.727-28.771-5.135-42.701
	l-1.34-5.476l4.646-3.194c3.708-2.55,7.171-5.426,10.296-8.549c28.051-28.051,28.051-73.692-0.001-101.743
	c-13.554-13.554-31.607-21.018-50.835-21.018c-18.523,0-36.1,6.99-49.493,19.68l-4.115,3.899l-5.091-2.491
	c-17.626-8.623-36.413-14.249-55.844-16.72l-11.43-1.455l-0.186,0.315l-4.865-0.18c-2.317-0.085-4.4-0.127-6.365-0.127
	c-5.544,0-11.195,0.266-16.797,0.791l-14.556,1.364l6.471-13.11c8.734-17.695,20.311-33.815,34.409-47.914
	c8.002-8.014,16.816-15.29,26.193-21.624c11.859-8.029,24.745-14.647,38.292-19.664c20.353-7.538,41.733-11.36,63.546-11.36
	c40.419,0,79.961,13.569,111.343,38.208l5.231,4.106l-2.961,5.954c-6.385,12.837-3.786,28.855,6.32,38.953
	c0.582,0.59,1.189,1.155,1.851,1.721l3.831,3.285l-1.224,4.896c-1.656,6.623-1.854,13.685-0.574,20.423
	c1.7,8.982,5.895,17.205,12.135,23.785c0.257,0.264,0.577,0.594,0.897,0.914c4.969,4.969,10.797,8.687,17.315,11.039l7.787,2.81
	l-2.917,7.748c-4.64,12.324-1.596,26.33,7.758,35.684c2.069,2.068,4.38,3.853,6.868,5.299l4.96,2.887l-1.037,5.645
	c-5.028,27.39-15.964,52.55-32.504,74.777c-5.259,7.075-11.129,13.866-17.446,20.184c-0.333,0.333-0.678,0.675-1.021,0.998
	c-22.999,22.654-51.696,38.737-82.994,46.509l-14.153,3.514L359.347,365.55z"/>
<path style="fill:#6A563D;" d="M237.326,360.639c-28.632-12.505-51.714-37.278-69.45-67.035
	c-13.341-22.384-19.615-38.552-19.815-39.334l-1.751-6.843l6.753-2.067c15.756-4.824,28.364-6.974,36.167-7.927
	c6.895-0.835,10.857-0.86,11.285-0.86h0.696l0.684,0.13c1.766,0.335,43.406,8.66,56.394,47.234
	c3.826,11.352,4.742,23.558,2.717,36.276c-3.427,21.592-14.194,37.222-14.65,37.876l-3.471,4.977L237.326,360.639z"/>
<path style="fill:#8C6D4B;" d="M213.535,340.932c-24.061-15.302-43.212-38.21-54.053-64.578c12.383-3.828,36.393-9.065,49.102,2.766
	C222.651,292.197,227.562,318.749,213.535,340.932z"/>
<path style="fill:#A58763;" d="M471.595,247.473c0,19.365-2.644,38.108-7.585,55.901c-5.033,6.768-10.596,13.21-16.67,19.284
	c-0.296,0.296-0.602,0.602-0.909,0.888c-22.775,22.458-50.276,37.26-79.298,44.468c5.655-17.875,8.718-36.893,8.718-56.626
	c0-15.374-1.868-30.329-5.37-44.641c4.053-2.787,7.891-5.951,11.444-9.504c31.238-31.238,31.238-82.055,0-113.292
	c-30.717-30.717-80.37-31.197-111.72-1.49c-18.048-8.83-37.699-14.853-58.402-17.487c4.961-7.432,10.658-14.404,17.048-20.805
	c17.548-17.548,39.547-29.921,63.384-35.882c6.717-1.684,13.577-2.858,20.519-3.491l-1.399-15.24
	c-16.139,1.47-31.84,5.543-46.54,11.954c-17.334,7.524-33.249,18.293-46.785,31.83c-9.126,9.126-16.977,19.294-23.438,30.258
	c-2.215-0.082-4.43-0.133-6.666-0.133c-5.921,0-11.78,0.286-17.558,0.827c8.259-16.731,19.284-32.177,32.861-45.754
	c7.769-7.779,16.15-14.659,24.99-20.631c11.505-7.789,23.796-14.047,36.556-18.773c74.776,0.531,140.181,40.456,176.502,100.052
	c5.421,8.881,10.178,18.191,14.23,27.879C465.879,191.808,471.595,218.972,471.595,247.473z"/>
<g>
	<path style="fill:#8C6D4B;" d="M218.03,93.338c-9.126,9.126-16.977,19.294-23.438,30.258c-2.215-0.082-4.43-0.133-6.666-0.133
		c-5.921,0-11.78,0.286-17.558,0.827c8.259-16.731,19.284-32.177,32.861-45.754c7.769-7.779,16.15-14.659,24.99-20.631
		c12.475,0.214,24.694,1.439,36.597,3.604C247.481,69.032,231.566,79.802,218.03,93.338z"/>
	<path style="fill:#8C6D4B;" d="M449.954,283.592c0,13.638-1.205,26.991-3.522,39.955c-22.775,22.458-50.276,37.26-79.298,44.468
		c5.655-17.875,8.718-36.893,8.718-56.626c0-15.374-1.868-30.329-5.37-44.641c4.053-2.787,7.891-5.951,11.444-9.504
		c31.238-31.238,31.238-82.055,0-113.292c-30.717-30.717-80.37-31.197-111.72-1.49c-18.048-8.83-37.699-14.853-58.402-17.487
		c4.961-7.432,10.658-14.404,17.048-20.805c17.548-17.548,39.547-29.921,63.384-35.882
		C383.671,97.146,449.954,182.63,449.954,283.592z"/>
</g>
<g>
	<path style="fill:#FFFFFF;" d="M330.918,64.341c4.878,0.2,9.797,0.667,14.618,1.387l2.263-15.145
		c-5.362-0.8-10.83-1.32-16.252-1.544L330.918,64.341z"/>
	<path style="fill:#FFFFFF;" d="M421.713,297.029c-1.196,1.197-2.432,2.388-3.67,3.538l10.424,11.217
		c1.375-1.277,2.745-2.599,4.074-3.927c19.007-19.008,32.644-42.723,39.438-68.581l-14.81-3.89
		C451.065,258.623,438.805,279.938,421.713,297.029z"/>
	<path style="fill:#FFFFFF;" d="M393.076,318.97l7.618,13.283c5.176-2.968,10.236-6.286,15.04-9.863l-9.144-12.282
		C402.272,313.321,397.726,316.303,393.076,318.97z"/>
	<circle style="fill:#FFFFFF;" cx="226.921" cy="285.752" r="9.342"/>
	<circle style="fill:#FFFFFF;" cx="428.424" cy="208.526" r="9.342"/>
	<circle style="fill:#FFFFFF;" cx="397.85" cy="74.653" r="9.342"/>
	<circle style="fill:#FFFFFF;" cx="358.385" cy="90.394" r="9.342"/>
	<circle style="fill:#FFFFFF;" cx="405.557" cy="124.358" r="9.342"/>
</g>
<path d="M506.334,220.514c-3.379-1.348-6.411-3.338-9.004-5.921c-9.167-9.167-10.413-23.5-2.971-34.086l7.023-9.994l-12.056-1.96
	c-8.371-1.368-15.956-5.257-21.958-11.25c-11.035-11.035-14.7-27.654-9.33-42.324l2.103-5.768l-5.176-3.308
	c-1.633-1.051-3.144-2.266-4.502-3.614c-9.269-9.279-10.361-24.184-2.542-34.688l4.298-5.758l-5.482-4.655
	c-35.852-30.431-81.565-46.183-128.727-44.376c-47.418,1.817-92.028,21.315-125.614,54.901
	c-17.273,17.273-30.758,37.332-40.068,59.147C65.67,143.542,0,219.942,0,311.389c0,103.625,84.301,187.936,187.926,187.936
	c77.481,0,144.162-47.142,172.878-114.252c35.699-6.809,69.784-24.01,97.367-51.583c28.604-28.604,46.897-64.813,52.92-104.717
	L512,222.75L506.334,220.514z M187.926,484.011c-95.183,0-172.613-77.441-172.613-172.623c0-95.173,77.43-172.613,172.613-172.613
	s172.613,77.441,172.613,172.613C360.539,406.572,283.108,484.011,187.926,484.011z M284.507,150.239
	c11.842-9.606,26.307-14.404,40.782-14.404c16.589,0,33.177,6.309,45.815,18.947c25.266,25.266,25.266,66.375,0,91.63
	c-1.654,1.654-3.389,3.205-5.186,4.655C351.504,208.641,322.308,172.983,284.507,150.239z M447.34,322.659
	c-22.948,22.948-50.797,38.057-80.207,45.356c5.655-17.875,8.718-36.893,8.718-56.626c0-15.374-1.868-30.329-5.37-44.641
	c4.053-2.787,7.891-5.951,11.444-9.504c31.238-31.238,31.238-82.055,0-113.292c-30.717-30.717-80.37-31.197-111.72-1.49
	c-18.048-8.83-37.699-14.853-58.402-17.487c4.961-7.432,10.658-14.404,17.048-20.805c22.489-22.489,52.287-36.474,83.902-39.374
	l-1.399-15.241c-35.168,3.216-68.314,18.773-93.325,43.784c-9.126,9.126-16.977,19.294-23.438,30.258
	c-2.215-0.082-4.43-0.133-6.666-0.133c-5.921,0-11.78,0.286-17.558,0.827c8.259-16.731,19.284-32.177,32.861-45.754
	c33.351-33.351,77.757-50.256,122.255-50.256c37.577,0,75.225,12.066,106.3,36.464c-7.871,15.823-4.992,35.525,7.86,48.367
	c0.735,0.745,1.511,1.46,2.307,2.144c-4.706,18.794,0.735,39.016,14.598,52.869c5.819,5.819,12.72,10.208,20.325,12.954
	c-5.676,15.078-2.246,32.463,9.626,44.335c2.572,2.573,5.431,4.778,8.534,6.584C488.705,266.462,472.289,297.709,447.34,322.659z"/>
<path d="M187.927,231.284c-44.172,0-80.109,35.936-80.109,80.11c0,44.172,35.937,80.109,80.109,80.109s80.109-35.936,80.109-80.109
	C268.035,267.221,232.098,231.284,187.927,231.284z M187.927,376.19c-35.728,0-64.797-29.068-64.797-64.797
	c0-20.329,9.418-38.493,24.111-50.381c9.132,26.994,24.417,51.732,45.157,72.472c11.12,11.12,23.303,20.541,36.218,28.285
	C217.484,370.778,203.328,376.19,187.927,376.19z M239.589,350.448c-13.015-7.438-25.266-16.694-36.363-27.791
	c-19.928-19.928-34.372-43.874-42.599-70.009c-0.342-1.118,10.162-3.614,11.101-3.858c28.377-7.348,58.553,5.451,72.887,31.246
	c5.313,9.561,8.11,20.421,8.11,31.358C252.722,326.049,247.824,339.58,239.589,350.448z"/>
<g>
	<circle style="fill:#FFFFFF;" cx="86.25" cy="334.721" r="9.342"/>
	<circle style="fill:#FFFFFF;" cx="58.156" cy="302.055" r="9.342"/>
	<circle style="fill:#FFFFFF;" cx="55.802" cy="377.372" r="9.342"/>
	<circle style="fill:#FFFFFF;" cx="55.802" cy="247.521" r="9.342"/>
	<circle style="fill:#FFFFFF;" cx="102.094" cy="232.086" r="9.342"/>
	<circle style="fill:#FFFFFF;" cx="140.814" cy="403.28" r="9.342"/>
	<circle style="fill:#FFFFFF;" cx="86.25" cy="409.834" r="9.342"/>
	<circle style="fill:#FFFFFF;" cx="298.594" cy="380.587" r="9.342"/>
	<circle style="fill:#FFFFFF;" cx="185.21" cy="423.769" r="9.342"/>
	<circle style="fill:#FFFFFF;" cx="255.25" cy="389.938" r="9.342"/>
	<circle style="fill:#FFFFFF;" cx="150.155" cy="457.068" r="9.342"/>
	<circle style="fill:#FFFFFF;" cx="244.061" cy="447.728" r="9.342"/>
	<circle style="fill:#FFFFFF;" cx="328.301" cy="273.645" r="9.342"/>
	<circle style="fill:#FFFFFF;" cx="219.275" cy="213.528" r="9.342"/>
	<circle style="fill:#FFFFFF;" cx="104.932" cy="193.448" r="9.342"/>
	<circle style="fill:#FFFFFF;" cx="289.254" cy="256.872" r="9.342"/>
	<circle style="fill:#FFFFFF;" cx="268.031" cy="202.788" r="9.342"/>
	<circle style="fill:#FFFFFF;" cx="217.571" cy="166.396" r="9.342"/>
	<circle style="fill:#FFFFFF;" cx="160.628" cy="185.077" r="9.342"/>
	<circle style="fill:#FFFFFF;" cx="298.594" cy="314.253" r="9.342"/>
	<circle style="fill:#FFFFFF;" cx="335.63" cy="337.416" r="9.342"/>
	<path style="fill:#FFFFFF;" d="M312.753,64.795c-31.615,2.899-61.413,16.885-83.902,39.374
		c-6.39,6.401-12.087,13.373-17.048,20.805c-3.961-0.98-17.211-1.378-17.211-1.378c6.462-10.964,14.312-21.131,23.438-30.258
		c25.01-25.01,58.157-40.568,93.325-43.784L312.753,64.795z"/>
</g>
<g>
</g>
<g>
</g>
<g>
</g>
<g>
</g>
<g>
</g>
<g>
</g>
<g>
</g>
<g>
</g>
<g>
</g>
<g>
</g>
<g>
</g>
<g>
</g>
<g>
</g>
<g>
</g>
<g>
</g>
</svg>
