<?xml version="1.0" encoding="iso-8859-1"?>
<!-- Generator: Adobe Illustrator 19.0.0, SVG Export Plug-In . SVG Version: 6.00 Build 0)  -->
<svg version="1.1" id="Capa_1" xmlns="http://www.w3.org/2000/svg" xmlns:xlink="http://www.w3.org/1999/xlink" x="0px" y="0px"
	 viewBox="0 0 512 512" style="enable-background:new 0 0 512 512;" xml:space="preserve">
<path style="fill:#FBC640;" d="M255.508,99.579c-12.217,0-22.156-9.944-22.156-22.167c0-11.479,19.531-50.373,20.363-52.023
	l1.793-3.558l1.793,3.557c0.831,1.65,20.374,40.544,20.374,52.023c0,12.133-9.499,21.866-21.626,22.157
	C255.922,99.577,255.721,99.579,255.508,99.579z"/>
<path style="fill:#FFABCD;" d="M255.508,352.366c-11.393,0-20.661-9.268-20.661-20.661c0-11.392,9.268-20.661,20.661-20.661
	c11.399,0,20.671,9.268,20.671,20.661C276.179,343.098,266.906,352.366,255.508,352.366z"/>
<rect x="236.915" y="121.997" style="fill:#FBDF97;" width="38.169" height="75.987"/>
<g>
	<path style="fill:#FFABCD;" d="M372.485,278.237c-13.295,0-24.669-8.376-29.125-20.128c-4.455,11.753-15.83,20.128-29.124,20.128
		c-13.289,0-24.659-8.376-29.114-20.128c-4.455,11.752-15.831,20.128-29.124,20.128c-13.294,0-24.668-8.376-29.124-20.128
		c-4.455,11.753-15.83,20.128-29.124,20.128c-13.295,0-24.669-8.376-29.125-20.128c-4.455,11.753-15.83,20.128-29.124,20.128
		c-13.303,0-24.683-8.392-29.128-20.162c-4.405,11.54-15.524,19.905-28.509,20.152c-0.206,0.005-0.419,0.007-0.63,0.007
		c-1.176,0-2.367-0.075-3.544-0.224c-15.445-1.818-27.557-15.649-27.557-31.487c0-28.979,23.58-52.555,52.564-52.555h306.598
		c14.041,0,27.241,5.467,37.168,15.396c9.929,9.928,15.396,23.124,15.396,37.159c0,16.336-12.531,30.21-28.53,31.585
		c-0.882,0.081-1.781,0.123-2.659,0.123c-0.185,0-0.367-0.001-0.553-0.005c-12.981-0.247-24.095-8.612-28.499-20.152
		C397.176,269.845,385.792,278.237,372.485,278.237z"/>
	<path style="fill:#FFABCD;" d="M139.244,352.366c-11.393,0-20.661-9.268-20.661-20.661c0-11.392,9.268-20.661,20.661-20.661
		c11.393,0,20.661,9.268,20.661,20.661C159.905,343.098,150.636,352.366,139.244,352.366z"/>
	<path style="fill:#FFABCD;" d="M371.782,352.366c-11.392,0-20.661-9.268-20.661-20.661c0-11.392,9.268-20.661,20.661-20.661
		s20.661,9.268,20.661,20.661C392.443,343.098,383.175,352.366,371.782,352.366z"/>
</g>
<path style="fill:#FBDF97;" d="M371.953,443.994c0-31.542-25.662-57.203-57.203-57.203s-57.202,25.661-57.202,57.203h-4.016
	c0-31.542-25.662-57.203-57.203-57.203c-31.536,0-57.193,25.661-57.193,57.203h-4.016c0-31.542-25.661-57.203-57.202-57.203h-2.008
	V276.089l0.322-2.311l1.966,0.248c1.011,0.128,2.033,0.192,3.041,0.192c0.183,0,0.364-0.002,0.547-0.006
	c14.67-0.279,26.6-12.44,26.6-27.106h4.016c0,14.951,12.159,27.116,27.106,27.116c14.952,0,27.116-12.165,27.116-27.116h4.016
	c0,14.951,12.165,27.116,27.117,27.116s27.116-12.165,27.116-27.116h4.016c0,14.951,12.164,27.116,27.116,27.116
	c14.952,0,27.116-12.165,27.116-27.116h4.016c0,14.951,12.159,27.116,27.106,27.116c14.952,0,27.116-12.165,27.116-27.116h4.016
	c0,14.951,12.165,27.116,27.117,27.116s27.116-12.165,27.116-27.116h4.016c0,14.667,11.925,26.827,26.583,27.106l0.476,0.004
	c0.756,0,1.53-0.036,2.303-0.107l2.005-0.185l0.198,2.216v110.651h-2.008c-31.542,0-57.203,25.661-57.203,57.203H371.953z
	 M371.782,315.061c-9.179,0-16.645,7.467-16.645,16.645c0,9.178,7.467,16.645,16.645,16.645s16.645-7.467,16.645-16.645
	C388.427,322.528,380.961,315.061,371.782,315.061z M255.508,315.061c-9.179,0-16.645,7.467-16.645,16.645
	c0,9.178,7.467,16.645,16.645,16.645c9.183,0,16.655-7.467,16.655-16.645C272.163,322.528,264.691,315.061,255.508,315.061z
	 M139.244,315.061c-9.179,0-16.645,7.467-16.645,16.645c0,9.178,7.467,16.645,16.645,16.645s16.645-7.467,16.645-16.645
	C155.889,322.528,148.423,315.061,139.244,315.061z"/>
<g>
	<path style="fill:#FF6BA6;" d="M371.953,446.002v-2.008c0-33.757,27.462-61.219,61.219-61.219h2.008v63.227H371.953z"/>
	<path style="fill:#FF6BA6;" d="M253.53,446.002v-2.008c0-33.757,27.462-61.219,61.218-61.219c33.757,0,61.219,27.462,61.219,61.219
		v2.008H253.53z"/>
	<path style="fill:#FF6BA6;" d="M135.118,446.002v-2.008c0-33.757,27.458-61.219,61.209-61.219
		c33.757,0,61.219,27.462,61.219,61.219v2.008H135.118z"/>
	<path style="fill:#FF6BA6;" d="M75.907,446.002v-63.227h2.008c33.756,0,61.218,27.462,61.218,61.219v2.008H75.907z"/>
</g>
<path style="fill:#EFEFEF;" d="M51.752,487.715c-24.108,0-43.721-19.614-43.721-43.721v-2.008h495.937v2.008
	c0,11.678-4.548,22.657-12.806,30.915s-19.237,12.806-30.915,12.806L51.752,487.715L51.752,487.715z"/>
<path d="M139.244,360.398c15.821,0,28.692-12.871,28.692-28.692c0-15.821-12.871-28.692-28.692-28.692s-28.692,12.871-28.692,28.692
	C110.552,347.527,123.423,360.398,139.244,360.398z M139.244,323.092c4.75,0,8.614,3.864,8.614,8.614s-3.864,8.614-8.614,8.614
	s-8.614-3.864-8.614-8.614S134.494,323.092,139.244,323.092z"/>
<path d="M255.508,360.398c15.827,0,28.702-12.871,28.702-28.692c0-15.821-12.875-28.692-28.702-28.692
	c-15.821,0-28.692,12.871-28.692,28.692C226.816,347.527,239.687,360.398,255.508,360.398z M255.508,323.092
	c4.755,0,8.624,3.864,8.624,8.614s-3.869,8.614-8.624,8.614c-4.75,0-8.614-3.864-8.614-8.614S250.758,323.092,255.508,323.092z"/>
<path d="M371.782,360.398c15.821,0,28.692-12.871,28.692-28.692c0-15.821-12.871-28.692-28.692-28.692s-28.692,12.871-28.692,28.692
	C343.09,347.527,355.962,360.398,371.782,360.398z M371.782,323.092c4.75,0,8.614,3.864,8.614,8.614s-3.864,8.614-8.614,8.614
	s-8.614-3.864-8.614-8.614S367.033,323.092,371.782,323.092z"/>
<path d="M51.752,495.747h408.496c13.823,0,26.819-5.383,36.594-15.158c9.775-9.775,15.158-22.771,15.158-36.594
	c0-5.545-4.496-10.039-10.039-10.039h-58.749v-149.8c15.524-5.367,26.683-20.408,26.683-37.632c0-16.18-6.303-31.394-17.748-42.838
	c-11.445-11.445-26.662-17.748-42.848-17.748H389.27c-5.544,0-10.039,4.495-10.039,10.039c0,5.545,4.496,10.039,10.039,10.039
	h20.028c10.822,0,20.998,4.214,28.65,11.867c7.653,7.653,11.867,17.824,11.867,28.641c0,10.137-7.693,18.738-17.577,19.589
	c-0.637,0.06-1.271,0.082-1.888,0.07c-10.313-0.197-18.704-8.754-18.704-19.077c0-5.545-4.496-10.039-10.039-10.039
	c-5.544,0-10.039,4.495-10.039,10.039c0,10.523-8.56,19.085-19.085,19.085c-10.524,0-19.086-8.561-19.086-19.085
	c0-5.545-4.496-10.039-10.039-10.039c-5.544,0-10.039,4.495-10.039,10.039c0,10.523-8.56,19.085-19.085,19.085
	c-10.518,0-19.075-8.561-19.075-19.085c0-5.545-4.496-10.039-10.039-10.039s-10.039,4.495-10.039,10.039
	c0,10.523-8.56,19.085-19.085,19.085s-19.085-8.561-19.085-19.085c0-5.545-4.496-10.039-10.039-10.039
	c-5.544,0-10.039,4.495-10.039,10.039c0,10.523-8.56,19.085-19.085,19.085c-10.524,0-19.086-8.561-19.086-19.085
	c0-5.545-4.496-10.039-10.039-10.039c-5.544,0-10.039,4.495-10.039,10.039c0,10.523-8.56,19.085-19.085,19.085
	c-10.518,0-19.075-8.561-19.075-19.085c0-5.545-4.496-10.039-10.039-10.039c-5.544,0-10.039,4.495-10.039,10.039
	c0,10.322-8.395,18.88-18.751,19.077c-0.792,0.021-1.601-0.023-2.484-0.135c-9.496-1.117-16.934-9.694-16.934-19.524
	c0-22.336,18.176-40.508,40.517-40.508h136.222h34.153h54.704c5.544,0,10.039-4.495,10.039-10.039
	c0-5.545-4.496-10.039-10.039-10.039h-44.664v-61.932c0-5.545-4.496-10.039-10.039-10.039h-7.032v-8.22
	c11.564-4.234,19.667-15.256,19.667-28.333c0-12.546-16.251-45.759-21.233-55.638c-1.707-3.385-5.174-5.521-8.966-5.521
	s-7.258,2.136-8.965,5.522c-4.978,9.881-21.222,43.092-21.222,55.637c0,13.314,8.661,24.635,20.641,28.641v7.912h-7.037
	c-5.544,0-10.039,4.495-10.039,10.039v61.932H102.701c-33.413,0-60.596,27.179-60.596,60.587c0,17.031,10.62,31.775,25.771,37.349
	v150.083H10.039C4.496,433.955,0,438.45,0,443.994C0,472.531,23.216,495.747,51.752,495.747z M255.511,49.702
	c5.643,12.624,10.053,24.099,10.117,27.715c-0.003,4.861-3.346,8.875-7.906,9.872c-0.56-0.097-1.133-0.158-1.722-0.158
	c-0.753,0-1.485,0.089-2.191,0.247c-4.767-0.812-8.411-4.965-8.411-9.958C245.461,73.806,249.869,62.329,255.511,49.702z
	 M248.963,134.044h14.075v51.893h-14.075V134.044z M385.034,433.955c3.973-19.072,19.026-34.126,38.1-38.099v38.099H385.034z
	 M110.349,273.216c7.174,8.006,17.587,13.051,29.156,13.051c11.551,0,21.949-5.026,29.124-13.007
	c7.174,7.981,17.574,13.007,29.125,13.007s21.949-5.026,29.124-13.007c7.174,7.981,17.573,13.007,29.124,13.007
	c11.55,0,21.948-5.026,29.123-13.006c7.173,7.979,17.568,13.006,29.115,13.006c11.551,0,21.949-5.026,29.124-13.007
	c7.174,7.981,17.574,13.007,29.125,13.007c11.572,0,21.987-5.045,29.163-13.051c5.563,6.185,13.052,10.604,21.485,12.288v89.974
	c-20.82,3.038-38.668,15.363-49.172,32.633c-12.158-19.99-34.152-33.37-59.211-33.37c-25.059,0-47.052,13.379-59.21,33.37
	c-12.158-19.99-34.152-33.37-59.211-33.37c-25.055,0-47.045,13.378-59.201,33.368c-10.504-17.269-28.352-29.595-49.171-32.631v-89.8
	C96.76,284.14,104.588,279.621,110.349,273.216z M362.888,433.955h-96.276c4.648-22.315,24.464-39.133,48.138-39.133
	C338.424,394.822,358.24,411.64,362.888,433.955z M244.465,433.955h-96.267c4.647-22.315,24.46-39.133,48.128-39.133
	C220,394.822,239.818,411.64,244.465,433.955z M87.954,395.855c19.073,3.973,34.126,19.026,38.099,38.099H87.954V395.855z
	 M490.305,454.034c-1.533,4.605-4.128,8.826-7.661,12.357c-5.982,5.982-13.936,9.277-22.396,9.277H51.752
	c-13.958,0-25.835-9.075-30.043-21.635H490.305z"/>
<path d="M358.902,206.015c12.919,0,12.941-20.078,0-20.078C345.983,185.936,345.961,206.015,358.902,206.015z"/>
<g>
</g>
<g>
</g>
<g>
</g>
<g>
</g>
<g>
</g>
<g>
</g>
<g>
</g>
<g>
</g>
<g>
</g>
<g>
</g>
<g>
</g>
<g>
</g>
<g>
</g>
<g>
</g>
<g>
</g>
</svg>
